<?xml version="1.0" encoding="utf-8"?>
<!DOCTYPE svg PUBLIC "-//W3C//DTD SVG 1.1//EN" "http://www.w3.org/Graphics/SVG/1.1/DTD/svg11.dtd">
<svg version="1.1" xmlns="http://www.w3.org/2000/svg" xmlns:xlink="http://www.w3.org/1999/xlink" x="0px" y="0px" width="198.425px" height="198.425px" viewBox="0.788 16.288 198.425 198.425" enable-background="new 0.788 16.288 198.425 198.425" xml:space="preserve">
    <g>
        <path d="M99.992,204.169c-16.219,0-31.491-6.341-43.001-17.854c-11.51-11.512-17.849-26.784-17.848-43.004v-7.674
            c-9.328-0.521-16.671-8.217-16.643-17.576c-0.001-5.82,2.875-11.256,7.692-14.536l1.318-0.899l-1.319-0.899
            c-4.817-3.277-7.692-8.713-7.691-14.54c-0.02-9.275,7.221-16.99,16.484-17.558l1.425-0.09l-0.469-1.353
            c-1.104-3.184-1.268-6.599-0.476-9.875c1.913-7.904,8.92-13.424,17.041-13.424c1.388,0,2.78,0.167,4.14,0.496l1.101,0.27
            l0.225-1.102c0.265-1.304,0.681-2.581,1.234-3.794c2.85-6.243,9.126-10.276,15.991-10.276c2.523,0,4.975,0.535,7.287,1.591
            l0.679,0.311l0.535-0.523c3.207-3.144,7.416-4.917,11.892-5.019l0.014-0.005l0.408-0.005c4.622,0.009,8.984,1.797,12.283,5.033
            l0.535,0.525l0.681-0.312c2.296-1.058,4.746-1.597,7.28-1.602c8.329,0,15.571,5.92,17.226,14.078l0.225,1.102l1.096-0.269
            c1.377-0.335,2.758-0.504,4.107-0.504c9.765,0.026,17.616,7.92,17.591,17.598c-0.009,1.956-0.34,3.879-0.983,5.72l-0.47,1.354
            l1.436,0.093c9.256,0.559,16.5,8.267,16.482,17.549c-0.009,5.828-2.894,11.261-7.717,14.532l-1.327,0.899l1.327,0.901
            c4.83,3.269,7.717,8.706,7.719,14.542v0.102c-0.031,9.346-7.423,17.004-16.655,17.472v7.668c0.001,16.22-6.339,31.493-17.85,43.005
            C131.483,197.829,116.212,204.169,99.992,204.169z"/>
        <path fill="#FFFFFF" d="M100.006,28.831c4.072,0.008,7.979,1.609,10.887,4.461l1.519,1.489l1.932-0.886
            c2.023-0.932,4.224-1.416,6.45-1.42c0.001,0,0.002,0,0.003,0c7.404,0,13.786,5.217,15.259,12.475l0.641,3.143l3.116-0.764
            c1.188-0.289,2.406-0.447,3.631-0.447c0.027,0,0.055,0,0.083,0c8.588,0.023,15.53,7.004,15.508,15.593
            c-0.008,1.725-0.302,3.437-0.871,5.065l-1.334,3.838l4.058,0.264c8.22,0.496,14.628,7.315,14.612,15.55
            c-0.008,5.161-2.568,9.984-6.84,12.881l-3.767,2.554l3.767,2.557c4.277,2.895,6.84,7.723,6.842,12.888c0,0.031,0,0.063,0,0.094
            c-0.028,8.572-6.985,15.501-15.55,15.501c-0.017,0-0.034,0-0.051,0c-0.353,0-0.705-0.089-1.055-0.089v9.734
            c0.001,32.433-26.421,58.857-58.853,58.857c-32.431,0-58.852-26.427-58.849-58.857v-9.734c-0.351,0.089-0.694,0.089-1.044,0.089
            c-0.031,0-0.062,0-0.092,0c-8.59-0.026-15.532-7.009-15.506-15.599c-0.001-5.16,2.553-9.985,6.818-12.889l3.744-2.552l-3.744-2.552
            c-4.265-2.902-6.819-7.728-6.818-12.886c-0.018-8.236,6.387-15.058,14.607-15.563l4.054-0.256l-1.331-3.838
            c-0.976-2.816-1.122-5.853-0.422-8.75c1.722-7.116,8.085-11.894,15.097-11.894c1.21,0,2.441,0.143,3.669,0.44l3.115,0.763
            l0.641-3.138c0.236-1.159,0.603-2.288,1.094-3.364c2.614-5.726,8.263-9.106,14.171-9.106c2.162,0,4.36,0.454,6.456,1.41
            l1.928,0.882l1.516-1.485c2.91-2.853,6.821-4.451,10.895-4.452L100.006,28.831 M99.229,24.83l-0.062,0.025
            c-4.64,0.193-9.002,2-12.422,5.151c-2.408-1.011-4.944-1.522-7.549-1.523c-7.645,0-14.635,4.492-17.81,11.445
            c-0.488,1.069-0.879,2.181-1.167,3.318c-1.229-0.238-2.473-0.357-3.713-0.357c-9.048,0-16.854,6.148-18.985,14.953
            c-0.792,3.274-0.726,6.672,0.184,9.897c-9.754,1.176-17.225,9.51-17.204,19.458c-0.001,6.052,2.792,11.732,7.532,15.43
            c-4.739,3.698-7.533,9.38-7.532,15.441c-0.03,9.8,7.212,17.968,16.643,19.382v5.861c-0.001,16.753,6.545,32.528,18.433,44.418
            c11.889,11.891,27.663,18.439,44.416,18.439c16.754,0,32.529-6.548,44.417-18.438c11.889-11.89,18.437-27.665,18.436-44.419v-5.86
            c9.382-1.401,16.623-9.511,16.655-19.273v-0.106c-0.002-6.07-2.805-11.752-7.557-15.444c4.744-3.692,7.546-9.369,7.555-15.43
            c0.019-9.947-7.451-18.273-17.209-19.444c0.485-1.708,0.736-3.474,0.744-5.261c0.028-10.788-8.718-19.582-19.497-19.611h-0.094
            c-1.212,0-2.444,0.122-3.675,0.362c-2.18-8.609-10.014-14.769-18.972-14.769c-2.624,0.005-5.158,0.521-7.553,1.533
            c-3.615-3.333-8.289-5.167-13.229-5.177L99.229,24.83L99.229,24.83z"/>
    </g>
    <g>
        <path fill="#754C24" d="M99.99,91.435l2.48,3.351c2.936,3.963,7.572,6.303,12.504,6.312c1.271,0,2.539-0.166,3.771-0.481l3.07-0.782
            l0.703,3.088c1.854,8.187,9.865,13.43,18.11,11.851l3.846-0.746l-0.175,3.914v0.147c-0.003,2.805,0.755,5.557,2.191,7.965v17.307
            c0.031,14.322-6.559,27.855-17.854,36.662c-0.29-3.675-0.989-7.545-2.665-11.332c-3.505-7.929-12.432-14.076-25.981-14.076
            c-13.551,0-22.479,6.147-25.985,14.076c-1.674,3.787-2.374,7.657-2.663,11.33c-11.295-8.806-17.886-22.338-17.854-36.66V126.07
            c1.441-2.413,2.203-5.17,2.203-7.98v-0.147l-0.173-3.914l3.844,0.746c8.249,1.593,16.271-3.654,18.116-11.851l0.701-3.088
            l3.07,0.779c1.232,0.318,2.499,0.477,3.772,0.484c4.931-0.004,9.569-2.346,12.5-6.312l2.483-3.351H99.99z"/>
        <circle cx="80.355" cy="132.526" r="8.378"/>
        <path d="M119.587,124.147c-4.627,0-8.378,3.751-8.378,8.378s3.751,8.379,8.378,8.379c4.626-0.002,8.376-3.753,8.376-8.379
            c0-4.627-3.751-8.378-8.378-8.378H119.587z"/>
        <path fill="#754C24" d="M99.979,166.958c10.527,0,12.904,2.688,14.686,6.72c1.41,3.189,1.68,8.089,1.731,13.207
            c-5.249,1.968-10.811,2.975-16.417,2.97c-5.605,0.005-11.167-1.002-16.415-2.97c0.086-5.119,0.315-10.018,1.729-13.207
            C87.075,169.646,89.454,166.958,99.979,166.958z"/>
    </g>
</svg>
